<?xml version="1.0" encoding="UTF-8" standalone="no"?>
<!-- Created with Inkscape (http://www.inkscape.org/) -->

<svg
   xmlns:dc="http://purl.org/dc/elements/1.1/"
   xmlns:cc="http://creativecommons.org/ns#"
   xmlns:rdf="http://www.w3.org/1999/02/22-rdf-syntax-ns#"
   xmlns:svg="http://www.w3.org/2000/svg"
   xmlns="http://www.w3.org/2000/svg"
   xmlns:sodipodi="http://sodipodi.sourceforge.net/DTD/sodipodi-0.dtd"
   xmlns:inkscape="http://www.inkscape.org/namespaces/inkscape"
   width="240px"
   height="240px"
   viewBox="0 0 240 240"
   version="1.1"
   id="SVGRoot"
   inkscape:version="0.92.5 (2060ec1f9f, 2020-04-08)"
   sodipodi:docname="logo_icon.svg">
  <defs
     id="defs111" />
  <sodipodi:namedview
     id="base"
     pagecolor="#ffffff"
     bordercolor="#666666"
     borderopacity="1.0"
     inkscape:pageopacity="0.0"
     inkscape:pageshadow="2"
     inkscape:zoom="0.98994949"
     inkscape:cx="162.93053"
     inkscape:cy="140.39837"
     inkscape:document-units="px"
     inkscape:current-layer="layer1"
     showgrid="false"
     inkscape:window-width="1366"
     inkscape:window-height="658"
     inkscape:window-x="0"
     inkscape:window-y="27"
     inkscape:window-maximized="1" />
  <metadata
     id="metadata114">
    <rdf:RDF>
      <cc:Work
         rdf:about="">
        <dc:format>image/svg+xml</dc:format>
        <dc:type
           rdf:resource="http://purl.org/dc/dcmitype/StillImage" />
        <dc:title></dc:title>
      </cc:Work>
    </rdf:RDF>
  </metadata>
  <g
     inkscape:label="Layer 1"
     inkscape:groupmode="layer"
     id="layer1">
    <g
       id="g17"
       transform="matrix(3.4446417,0,0,3.4446417,-449.22099,-0.46675518)">
      <path
         id="path7"
         d="m 169.264,57.46 c -2.062,0 -4.063,0 -6.127,0 0,-0.146 0,-0.274 0,-0.405 0,-16.646 0,-33.291 -0.004,-49.936 0,-0.241 0.062,-0.413 0.241,-0.583 0.877,-0.829 1.741,-1.673 2.636,-2.536 0.246,0.234 0.479,0.452 0.71,0.673 0.771,0.743 1.549,1.479 2.306,2.24 0.131,0.13 0.232,0.354 0.232,0.537 0.009,7.188 0.002,14.378 0.002,21.566 -0.001,9.294 0.003,18.588 0.004,27.883 0,0.173 0,0.346 0,0.561 z"
         inkscape:connector-curvature="0"
         style="fill:#2983c5" />
      <path
         id="path9"
         d="m 159.697,10.088 c 0,0.237 0,0.371 0,0.506 0,4.534 0,9.069 0,13.604 0,10.915 0,21.829 0,32.742 0,0.585 0.062,0.551 -0.571,0.546 -1.744,-0.014 -3.487,-0.016 -5.231,0 -0.353,0.004 -0.475,-0.084 -0.475,-0.455 0.012,-12.296 0.016,-24.592 0.019,-36.888 0,-1.233 -0.008,-2.466 0.002,-3.7 0.002,-0.146 0.053,-0.333 0.149,-0.429 2.004,-1.957 4.017,-3.903 6.107,-5.926 z"
         inkscape:connector-curvature="0"
         style="fill:#2983c5" />
      <path
         id="path11"
         d="m 172.713,10.313 c 0.224,0.265 0.428,0.549 0.676,0.789 1.688,1.642 3.387,3.274 5.081,4.912 0.271,0.262 0.514,0.462 0.432,0.972 -0.123,0.79 -0.045,1.614 -0.045,2.424 0.004,7.926 0.008,15.851 0.018,23.776 0.004,4.486 0.02,8.974 0.02,13.459 0,1.007 0.035,0.824 -0.816,0.83 -1.547,0.012 -3.092,0.002 -4.638,0.004 -0.876,0 -0.874,0.002 -0.874,-0.884 0,-5.882 0,-11.764 0,-17.646 0.001,-4.059 0.002,-8.116 0.002,-12.174 0,-5.327 0,-10.653 -10e-4,-15.981 0,-0.123 0,-0.247 0,-0.37 0.044,-0.038 0.095,-0.074 0.145,-0.111 z"
         inkscape:connector-curvature="0"
         style="fill:#2983c5" />
      <path
         id="path13"
         d="m 150.202,35.551 c 0,0.22 0.001,0.362 0,0.506 -0.015,3.999 -0.035,7.999 -0.037,11.998 -0.003,4.034 0.016,8.068 0.014,12.102 0,0.157 -0.066,0.356 -0.174,0.46 -1.981,1.93 -3.976,3.848 -5.967,5.768 -0.017,0.016 -0.041,0.021 -0.116,0.053 0,-0.148 0,-0.277 0,-0.406 0,-3.838 0,-7.678 0.001,-11.514 0.002,-4.21 0,-8.422 0.014,-12.632 0,-0.177 0.081,-0.401 0.204,-0.522 1.917,-1.87 3.847,-3.728 5.774,-5.587 0.065,-0.067 0.145,-0.115 0.287,-0.226 z"
         inkscape:connector-curvature="0"
         style="fill:#2983c5" />
      <path
         id="path15"
         d="m 188.334,66.424 c -0.166,-0.154 -0.275,-0.25 -0.381,-0.35 -1.836,-1.773 -3.668,-3.555 -5.518,-5.316 -0.26,-0.248 -0.352,-0.505 -0.35,-0.851 0.021,-4.609 0.037,-9.219 0.047,-13.828 0.004,-1.545 -0.012,-3.09 -0.021,-4.635 -0.004,-0.764 -0.01,-1.529 -0.012,-2.295 -0.004,-0.741 0.004,-1.483 -0.002,-2.226 -0.002,-0.157 -0.027,-0.32 -0.066,-0.475 -0.096,-0.39 -0.102,-0.388 0.086,-0.876 0.084,0.056 0.168,0.096 0.23,0.158 1.906,1.844 3.816,3.687 5.709,5.547 0.154,0.151 0.262,0.429 0.262,0.648 0.016,7.375 0.014,14.75 0.016,22.125 0,0.762 0,1.522 0,2.374 z"
         inkscape:connector-curvature="0"
         style="fill:#2983c5" />
    </g>
  </g>
</svg>
